<mxfile host="app.diagrams.net" modified="2022-08-18T07:44:38.497Z" agent="5.0 (Windows NT 10.0; Win64; x64) AppleWebKit/537.36 (KHTML, like Gecko) Chrome/104.0.0.0 Safari/537.36" etag="dwMQTd5W5GvLMJoKKN9j" version="20.2.3" type="github">
  <diagram id="qz-nVTfvWQJ1BULRl2s8" name="Page-1">
    <mxGraphModel dx="1888" dy="489" grid="1" gridSize="10" guides="1" tooltips="1" connect="1" arrows="1" fold="1" page="1" pageScale="1" pageWidth="850" pageHeight="1100" math="0" shadow="0">
      <root>
        <mxCell id="0" />
        <mxCell id="1" parent="0" />
        <mxCell id="TTWSgJHcMphLvMV4Wp4F-28" value="" style="shape=table;startSize=0;container=1;collapsible=0;childLayout=tableLayout;" vertex="1" parent="1">
          <mxGeometry x="-721" y="350" width="681" height="40" as="geometry" />
        </mxCell>
        <mxCell id="TTWSgJHcMphLvMV4Wp4F-29" value="" style="shape=tableRow;horizontal=0;startSize=0;swimlaneHead=0;swimlaneBody=0;top=0;left=0;bottom=0;right=0;collapsible=0;dropTarget=0;fillColor=none;points=[[0,0.5],[1,0.5]];portConstraint=eastwest;" vertex="1" parent="TTWSgJHcMphLvMV4Wp4F-28">
          <mxGeometry width="681" height="40" as="geometry" />
        </mxCell>
        <mxCell id="TTWSgJHcMphLvMV4Wp4F-83" value="6&lt;br&gt;3" style="shape=partialRectangle;html=1;whiteSpace=wrap;connectable=0;overflow=hidden;fillColor=none;top=0;left=0;bottom=0;right=0;pointerEvents=1;" vertex="1" parent="TTWSgJHcMphLvMV4Wp4F-29">
          <mxGeometry width="11" height="40" as="geometry">
            <mxRectangle width="11" height="40" as="alternateBounds" />
          </mxGeometry>
        </mxCell>
        <mxCell id="TTWSgJHcMphLvMV4Wp4F-84" style="shape=partialRectangle;html=1;whiteSpace=wrap;connectable=0;overflow=hidden;fillColor=none;top=0;left=0;bottom=0;right=0;pointerEvents=1;" vertex="1" parent="TTWSgJHcMphLvMV4Wp4F-29">
          <mxGeometry x="11" width="10" height="40" as="geometry">
            <mxRectangle width="10" height="40" as="alternateBounds" />
          </mxGeometry>
        </mxCell>
        <mxCell id="TTWSgJHcMphLvMV4Wp4F-85" style="shape=partialRectangle;html=1;whiteSpace=wrap;connectable=0;overflow=hidden;fillColor=none;top=0;left=0;bottom=0;right=0;pointerEvents=1;" vertex="1" parent="TTWSgJHcMphLvMV4Wp4F-29">
          <mxGeometry x="21" width="11" height="40" as="geometry">
            <mxRectangle width="11" height="40" as="alternateBounds" />
          </mxGeometry>
        </mxCell>
        <mxCell id="TTWSgJHcMphLvMV4Wp4F-86" style="shape=partialRectangle;html=1;whiteSpace=wrap;connectable=0;overflow=hidden;fillColor=none;top=0;left=0;bottom=0;right=0;pointerEvents=1;" vertex="1" parent="TTWSgJHcMphLvMV4Wp4F-29">
          <mxGeometry x="32" width="12" height="40" as="geometry">
            <mxRectangle width="12" height="40" as="alternateBounds" />
          </mxGeometry>
        </mxCell>
        <mxCell id="TTWSgJHcMphLvMV4Wp4F-87" style="shape=partialRectangle;html=1;whiteSpace=wrap;connectable=0;overflow=hidden;fillColor=none;top=0;left=0;bottom=0;right=0;pointerEvents=1;" vertex="1" parent="TTWSgJHcMphLvMV4Wp4F-29">
          <mxGeometry x="44" width="10" height="40" as="geometry">
            <mxRectangle width="10" height="40" as="alternateBounds" />
          </mxGeometry>
        </mxCell>
        <mxCell id="TTWSgJHcMphLvMV4Wp4F-88" style="shape=partialRectangle;html=1;whiteSpace=wrap;connectable=0;overflow=hidden;fillColor=none;top=0;left=0;bottom=0;right=0;pointerEvents=1;" vertex="1" parent="TTWSgJHcMphLvMV4Wp4F-29">
          <mxGeometry x="54" width="11" height="40" as="geometry">
            <mxRectangle width="11" height="40" as="alternateBounds" />
          </mxGeometry>
        </mxCell>
        <mxCell id="TTWSgJHcMphLvMV4Wp4F-89" style="shape=partialRectangle;html=1;whiteSpace=wrap;connectable=0;overflow=hidden;fillColor=none;top=0;left=0;bottom=0;right=0;pointerEvents=1;" vertex="1" parent="TTWSgJHcMphLvMV4Wp4F-29">
          <mxGeometry x="65" width="11" height="40" as="geometry">
            <mxRectangle width="11" height="40" as="alternateBounds" />
          </mxGeometry>
        </mxCell>
        <mxCell id="TTWSgJHcMphLvMV4Wp4F-90" style="shape=partialRectangle;html=1;whiteSpace=wrap;connectable=0;overflow=hidden;fillColor=none;top=0;left=0;bottom=0;right=0;pointerEvents=1;" vertex="1" parent="TTWSgJHcMphLvMV4Wp4F-29">
          <mxGeometry x="76" width="10" height="40" as="geometry">
            <mxRectangle width="10" height="40" as="alternateBounds" />
          </mxGeometry>
        </mxCell>
        <mxCell id="TTWSgJHcMphLvMV4Wp4F-91" style="shape=partialRectangle;html=1;whiteSpace=wrap;connectable=0;overflow=hidden;fillColor=none;top=0;left=0;bottom=0;right=0;pointerEvents=1;" vertex="1" parent="TTWSgJHcMphLvMV4Wp4F-29">
          <mxGeometry x="86" width="11" height="40" as="geometry">
            <mxRectangle width="11" height="40" as="alternateBounds" />
          </mxGeometry>
        </mxCell>
        <mxCell id="TTWSgJHcMphLvMV4Wp4F-92" style="shape=partialRectangle;html=1;whiteSpace=wrap;connectable=0;overflow=hidden;fillColor=none;top=0;left=0;bottom=0;right=0;pointerEvents=1;" vertex="1" parent="TTWSgJHcMphLvMV4Wp4F-29">
          <mxGeometry x="97" width="12" height="40" as="geometry">
            <mxRectangle width="12" height="40" as="alternateBounds" />
          </mxGeometry>
        </mxCell>
        <mxCell id="TTWSgJHcMphLvMV4Wp4F-93" style="shape=partialRectangle;html=1;whiteSpace=wrap;connectable=0;overflow=hidden;fillColor=none;top=0;left=0;bottom=0;right=0;pointerEvents=1;" vertex="1" parent="TTWSgJHcMphLvMV4Wp4F-29">
          <mxGeometry x="109" width="10" height="40" as="geometry">
            <mxRectangle width="10" height="40" as="alternateBounds" />
          </mxGeometry>
        </mxCell>
        <mxCell id="TTWSgJHcMphLvMV4Wp4F-94" style="shape=partialRectangle;html=1;whiteSpace=wrap;connectable=0;overflow=hidden;fillColor=none;top=0;left=0;bottom=0;right=0;pointerEvents=1;" vertex="1" parent="TTWSgJHcMphLvMV4Wp4F-29">
          <mxGeometry x="119" width="12" height="40" as="geometry">
            <mxRectangle width="12" height="40" as="alternateBounds" />
          </mxGeometry>
        </mxCell>
        <mxCell id="TTWSgJHcMphLvMV4Wp4F-95" style="shape=partialRectangle;html=1;whiteSpace=wrap;connectable=0;overflow=hidden;fillColor=none;top=0;left=0;bottom=0;right=0;pointerEvents=1;" vertex="1" parent="TTWSgJHcMphLvMV4Wp4F-29">
          <mxGeometry x="131" width="11" height="40" as="geometry">
            <mxRectangle width="11" height="40" as="alternateBounds" />
          </mxGeometry>
        </mxCell>
        <mxCell id="TTWSgJHcMphLvMV4Wp4F-96" style="shape=partialRectangle;html=1;whiteSpace=wrap;connectable=0;overflow=hidden;fillColor=none;top=0;left=0;bottom=0;right=0;pointerEvents=1;" vertex="1" parent="TTWSgJHcMphLvMV4Wp4F-29">
          <mxGeometry x="142" width="10" height="40" as="geometry">
            <mxRectangle width="10" height="40" as="alternateBounds" />
          </mxGeometry>
        </mxCell>
        <mxCell id="TTWSgJHcMphLvMV4Wp4F-97" style="shape=partialRectangle;html=1;whiteSpace=wrap;connectable=0;overflow=hidden;fillColor=none;top=0;left=0;bottom=0;right=0;pointerEvents=1;" vertex="1" parent="TTWSgJHcMphLvMV4Wp4F-29">
          <mxGeometry x="152" width="9" height="40" as="geometry">
            <mxRectangle width="9" height="40" as="alternateBounds" />
          </mxGeometry>
        </mxCell>
        <mxCell id="TTWSgJHcMphLvMV4Wp4F-98" style="shape=partialRectangle;html=1;whiteSpace=wrap;connectable=0;overflow=hidden;fillColor=none;top=0;left=0;bottom=0;right=0;pointerEvents=1;" vertex="1" parent="TTWSgJHcMphLvMV4Wp4F-29">
          <mxGeometry x="161" width="12" height="40" as="geometry">
            <mxRectangle width="12" height="40" as="alternateBounds" />
          </mxGeometry>
        </mxCell>
        <mxCell id="TTWSgJHcMphLvMV4Wp4F-99" style="shape=partialRectangle;html=1;whiteSpace=wrap;connectable=0;overflow=hidden;fillColor=none;top=0;left=0;bottom=0;right=0;pointerEvents=1;" vertex="1" parent="TTWSgJHcMphLvMV4Wp4F-29">
          <mxGeometry x="173" width="12" height="40" as="geometry">
            <mxRectangle width="12" height="40" as="alternateBounds" />
          </mxGeometry>
        </mxCell>
        <mxCell id="TTWSgJHcMphLvMV4Wp4F-100" style="shape=partialRectangle;html=1;whiteSpace=wrap;connectable=0;overflow=hidden;fillColor=none;top=0;left=0;bottom=0;right=0;pointerEvents=1;" vertex="1" parent="TTWSgJHcMphLvMV4Wp4F-29">
          <mxGeometry x="185" width="10" height="40" as="geometry">
            <mxRectangle width="10" height="40" as="alternateBounds" />
          </mxGeometry>
        </mxCell>
        <mxCell id="TTWSgJHcMphLvMV4Wp4F-101" style="shape=partialRectangle;html=1;whiteSpace=wrap;connectable=0;overflow=hidden;fillColor=none;top=0;left=0;bottom=0;right=0;pointerEvents=1;" vertex="1" parent="TTWSgJHcMphLvMV4Wp4F-29">
          <mxGeometry x="195" width="11" height="40" as="geometry">
            <mxRectangle width="11" height="40" as="alternateBounds" />
          </mxGeometry>
        </mxCell>
        <mxCell id="TTWSgJHcMphLvMV4Wp4F-102" style="shape=partialRectangle;html=1;whiteSpace=wrap;connectable=0;overflow=hidden;fillColor=none;top=0;left=0;bottom=0;right=0;pointerEvents=1;" vertex="1" parent="TTWSgJHcMphLvMV4Wp4F-29">
          <mxGeometry x="206" width="10" height="40" as="geometry">
            <mxRectangle width="10" height="40" as="alternateBounds" />
          </mxGeometry>
        </mxCell>
        <mxCell id="TTWSgJHcMphLvMV4Wp4F-103" style="shape=partialRectangle;html=1;whiteSpace=wrap;connectable=0;overflow=hidden;fillColor=none;top=0;left=0;bottom=0;right=0;pointerEvents=1;" vertex="1" parent="TTWSgJHcMphLvMV4Wp4F-29">
          <mxGeometry x="216" width="10" height="40" as="geometry">
            <mxRectangle width="10" height="40" as="alternateBounds" />
          </mxGeometry>
        </mxCell>
        <mxCell id="TTWSgJHcMphLvMV4Wp4F-104" style="shape=partialRectangle;html=1;whiteSpace=wrap;connectable=0;overflow=hidden;fillColor=none;top=0;left=0;bottom=0;right=0;pointerEvents=1;" vertex="1" parent="TTWSgJHcMphLvMV4Wp4F-29">
          <mxGeometry x="226" width="13" height="40" as="geometry">
            <mxRectangle width="13" height="40" as="alternateBounds" />
          </mxGeometry>
        </mxCell>
        <mxCell id="TTWSgJHcMphLvMV4Wp4F-105" style="shape=partialRectangle;html=1;whiteSpace=wrap;connectable=0;overflow=hidden;fillColor=none;top=0;left=0;bottom=0;right=0;pointerEvents=1;" vertex="1" parent="TTWSgJHcMphLvMV4Wp4F-29">
          <mxGeometry x="239" width="11" height="40" as="geometry">
            <mxRectangle width="11" height="40" as="alternateBounds" />
          </mxGeometry>
        </mxCell>
        <mxCell id="TTWSgJHcMphLvMV4Wp4F-106" style="shape=partialRectangle;html=1;whiteSpace=wrap;connectable=0;overflow=hidden;fillColor=none;top=0;left=0;bottom=0;right=0;pointerEvents=1;" vertex="1" parent="TTWSgJHcMphLvMV4Wp4F-29">
          <mxGeometry x="250" width="10" height="40" as="geometry">
            <mxRectangle width="10" height="40" as="alternateBounds" />
          </mxGeometry>
        </mxCell>
        <mxCell id="TTWSgJHcMphLvMV4Wp4F-107" style="shape=partialRectangle;html=1;whiteSpace=wrap;connectable=0;overflow=hidden;fillColor=none;top=0;left=0;bottom=0;right=0;pointerEvents=1;" vertex="1" parent="TTWSgJHcMphLvMV4Wp4F-29">
          <mxGeometry x="260" width="11" height="40" as="geometry">
            <mxRectangle width="11" height="40" as="alternateBounds" />
          </mxGeometry>
        </mxCell>
        <mxCell id="TTWSgJHcMphLvMV4Wp4F-108" style="shape=partialRectangle;html=1;whiteSpace=wrap;connectable=0;overflow=hidden;fillColor=none;top=0;left=0;bottom=0;right=0;pointerEvents=1;" vertex="1" parent="TTWSgJHcMphLvMV4Wp4F-29">
          <mxGeometry x="271" width="10" height="40" as="geometry">
            <mxRectangle width="10" height="40" as="alternateBounds" />
          </mxGeometry>
        </mxCell>
        <mxCell id="TTWSgJHcMphLvMV4Wp4F-109" style="shape=partialRectangle;html=1;whiteSpace=wrap;connectable=0;overflow=hidden;fillColor=none;top=0;left=0;bottom=0;right=0;pointerEvents=1;" vertex="1" parent="TTWSgJHcMphLvMV4Wp4F-29">
          <mxGeometry x="281" width="11" height="40" as="geometry">
            <mxRectangle width="11" height="40" as="alternateBounds" />
          </mxGeometry>
        </mxCell>
        <mxCell id="TTWSgJHcMphLvMV4Wp4F-110" style="shape=partialRectangle;html=1;whiteSpace=wrap;connectable=0;overflow=hidden;fillColor=none;top=0;left=0;bottom=0;right=0;pointerEvents=1;" vertex="1" parent="TTWSgJHcMphLvMV4Wp4F-29">
          <mxGeometry x="292" width="11" height="40" as="geometry">
            <mxRectangle width="11" height="40" as="alternateBounds" />
          </mxGeometry>
        </mxCell>
        <mxCell id="TTWSgJHcMphLvMV4Wp4F-111" style="shape=partialRectangle;html=1;whiteSpace=wrap;connectable=0;overflow=hidden;fillColor=none;top=0;left=0;bottom=0;right=0;pointerEvents=1;" vertex="1" parent="TTWSgJHcMphLvMV4Wp4F-29">
          <mxGeometry x="303" width="12" height="40" as="geometry">
            <mxRectangle width="12" height="40" as="alternateBounds" />
          </mxGeometry>
        </mxCell>
        <mxCell id="TTWSgJHcMphLvMV4Wp4F-112" style="shape=partialRectangle;html=1;whiteSpace=wrap;connectable=0;overflow=hidden;fillColor=none;top=0;left=0;bottom=0;right=0;pointerEvents=1;" vertex="1" parent="TTWSgJHcMphLvMV4Wp4F-29">
          <mxGeometry x="315" width="10" height="40" as="geometry">
            <mxRectangle width="10" height="40" as="alternateBounds" />
          </mxGeometry>
        </mxCell>
        <mxCell id="TTWSgJHcMphLvMV4Wp4F-113" style="shape=partialRectangle;html=1;whiteSpace=wrap;connectable=0;overflow=hidden;fillColor=none;top=0;left=0;bottom=0;right=0;pointerEvents=1;" vertex="1" parent="TTWSgJHcMphLvMV4Wp4F-29">
          <mxGeometry x="325" width="11" height="40" as="geometry">
            <mxRectangle width="11" height="40" as="alternateBounds" />
          </mxGeometry>
        </mxCell>
        <mxCell id="TTWSgJHcMphLvMV4Wp4F-114" style="shape=partialRectangle;html=1;whiteSpace=wrap;connectable=0;overflow=hidden;fillColor=none;top=0;left=0;bottom=0;right=0;pointerEvents=1;" vertex="1" parent="TTWSgJHcMphLvMV4Wp4F-29">
          <mxGeometry x="336" width="11" height="40" as="geometry">
            <mxRectangle width="11" height="40" as="alternateBounds" />
          </mxGeometry>
        </mxCell>
        <mxCell id="TTWSgJHcMphLvMV4Wp4F-82" style="shape=partialRectangle;html=1;whiteSpace=wrap;connectable=0;overflow=hidden;fillColor=none;top=0;left=0;bottom=0;right=0;pointerEvents=1;" vertex="1" parent="TTWSgJHcMphLvMV4Wp4F-29">
          <mxGeometry x="347" width="10" height="40" as="geometry">
            <mxRectangle width="10" height="40" as="alternateBounds" />
          </mxGeometry>
        </mxCell>
        <mxCell id="TTWSgJHcMphLvMV4Wp4F-81" style="shape=partialRectangle;html=1;whiteSpace=wrap;connectable=0;overflow=hidden;fillColor=none;top=0;left=0;bottom=0;right=0;pointerEvents=1;" vertex="1" parent="TTWSgJHcMphLvMV4Wp4F-29">
          <mxGeometry x="357" width="11" height="40" as="geometry">
            <mxRectangle width="11" height="40" as="alternateBounds" />
          </mxGeometry>
        </mxCell>
        <mxCell id="TTWSgJHcMphLvMV4Wp4F-80" style="shape=partialRectangle;html=1;whiteSpace=wrap;connectable=0;overflow=hidden;fillColor=none;top=0;left=0;bottom=0;right=0;pointerEvents=1;" vertex="1" parent="TTWSgJHcMphLvMV4Wp4F-29">
          <mxGeometry x="368" width="12" height="40" as="geometry">
            <mxRectangle width="12" height="40" as="alternateBounds" />
          </mxGeometry>
        </mxCell>
        <mxCell id="TTWSgJHcMphLvMV4Wp4F-78" style="shape=partialRectangle;html=1;whiteSpace=wrap;connectable=0;overflow=hidden;fillColor=none;top=0;left=0;bottom=0;right=0;pointerEvents=1;" vertex="1" parent="TTWSgJHcMphLvMV4Wp4F-29">
          <mxGeometry x="380" width="11" height="40" as="geometry">
            <mxRectangle width="11" height="40" as="alternateBounds" />
          </mxGeometry>
        </mxCell>
        <mxCell id="TTWSgJHcMphLvMV4Wp4F-30" value="" style="shape=partialRectangle;html=1;whiteSpace=wrap;connectable=0;overflow=hidden;fillColor=none;top=0;left=0;bottom=0;right=0;pointerEvents=1;" vertex="1" parent="TTWSgJHcMphLvMV4Wp4F-29">
          <mxGeometry x="391" width="10" height="40" as="geometry">
            <mxRectangle width="10" height="40" as="alternateBounds" />
          </mxGeometry>
        </mxCell>
        <mxCell id="TTWSgJHcMphLvMV4Wp4F-31" value="" style="shape=partialRectangle;html=1;whiteSpace=wrap;connectable=0;overflow=hidden;fillColor=none;top=0;left=0;bottom=0;right=0;pointerEvents=1;" vertex="1" parent="TTWSgJHcMphLvMV4Wp4F-29">
          <mxGeometry x="401" width="10" height="40" as="geometry">
            <mxRectangle width="10" height="40" as="alternateBounds" />
          </mxGeometry>
        </mxCell>
        <mxCell id="TTWSgJHcMphLvMV4Wp4F-32" value="" style="shape=partialRectangle;html=1;whiteSpace=wrap;connectable=0;overflow=hidden;fillColor=none;top=0;left=0;bottom=0;right=0;pointerEvents=1;" vertex="1" parent="TTWSgJHcMphLvMV4Wp4F-29">
          <mxGeometry x="411" width="11" height="40" as="geometry">
            <mxRectangle width="11" height="40" as="alternateBounds" />
          </mxGeometry>
        </mxCell>
        <mxCell id="TTWSgJHcMphLvMV4Wp4F-33" value="" style="shape=partialRectangle;html=1;whiteSpace=wrap;connectable=0;overflow=hidden;fillColor=none;top=0;left=0;bottom=0;right=0;pointerEvents=1;" vertex="1" parent="TTWSgJHcMphLvMV4Wp4F-29">
          <mxGeometry x="422" width="9" height="40" as="geometry">
            <mxRectangle width="9" height="40" as="alternateBounds" />
          </mxGeometry>
        </mxCell>
        <mxCell id="TTWSgJHcMphLvMV4Wp4F-34" value="" style="shape=partialRectangle;html=1;whiteSpace=wrap;connectable=0;overflow=hidden;fillColor=none;top=0;left=0;bottom=0;right=0;pointerEvents=1;" vertex="1" parent="TTWSgJHcMphLvMV4Wp4F-29">
          <mxGeometry x="431" width="13" height="40" as="geometry">
            <mxRectangle width="13" height="40" as="alternateBounds" />
          </mxGeometry>
        </mxCell>
        <mxCell id="TTWSgJHcMphLvMV4Wp4F-35" value="" style="shape=partialRectangle;html=1;whiteSpace=wrap;connectable=0;overflow=hidden;fillColor=none;top=0;left=0;bottom=0;right=0;pointerEvents=1;" vertex="1" parent="TTWSgJHcMphLvMV4Wp4F-29">
          <mxGeometry x="444" width="10" height="40" as="geometry">
            <mxRectangle width="10" height="40" as="alternateBounds" />
          </mxGeometry>
        </mxCell>
        <mxCell id="TTWSgJHcMphLvMV4Wp4F-36" value="" style="shape=partialRectangle;html=1;whiteSpace=wrap;connectable=0;overflow=hidden;fillColor=none;top=0;left=0;bottom=0;right=0;pointerEvents=1;" vertex="1" parent="TTWSgJHcMphLvMV4Wp4F-29">
          <mxGeometry x="454" width="10" height="40" as="geometry">
            <mxRectangle width="10" height="40" as="alternateBounds" />
          </mxGeometry>
        </mxCell>
        <mxCell id="TTWSgJHcMphLvMV4Wp4F-37" value="" style="shape=partialRectangle;html=1;whiteSpace=wrap;connectable=0;overflow=hidden;fillColor=none;top=0;left=0;bottom=0;right=0;pointerEvents=1;" vertex="1" parent="TTWSgJHcMphLvMV4Wp4F-29">
          <mxGeometry x="464" width="10" height="40" as="geometry">
            <mxRectangle width="10" height="40" as="alternateBounds" />
          </mxGeometry>
        </mxCell>
        <mxCell id="TTWSgJHcMphLvMV4Wp4F-38" value="" style="shape=partialRectangle;html=1;whiteSpace=wrap;connectable=0;overflow=hidden;fillColor=none;top=0;left=0;bottom=0;right=0;pointerEvents=1;" vertex="1" parent="TTWSgJHcMphLvMV4Wp4F-29">
          <mxGeometry x="474" width="11" height="40" as="geometry">
            <mxRectangle width="11" height="40" as="alternateBounds" />
          </mxGeometry>
        </mxCell>
        <mxCell id="TTWSgJHcMphLvMV4Wp4F-39" value="" style="shape=partialRectangle;html=1;whiteSpace=wrap;connectable=0;overflow=hidden;fillColor=none;top=0;left=0;bottom=0;right=0;pointerEvents=1;" vertex="1" parent="TTWSgJHcMphLvMV4Wp4F-29">
          <mxGeometry x="485" width="10" height="40" as="geometry">
            <mxRectangle width="10" height="40" as="alternateBounds" />
          </mxGeometry>
        </mxCell>
        <mxCell id="TTWSgJHcMphLvMV4Wp4F-40" value="" style="shape=partialRectangle;html=1;whiteSpace=wrap;connectable=0;overflow=hidden;fillColor=none;top=0;left=0;bottom=0;right=0;pointerEvents=1;" vertex="1" parent="TTWSgJHcMphLvMV4Wp4F-29">
          <mxGeometry x="495" width="10" height="40" as="geometry">
            <mxRectangle width="10" height="40" as="alternateBounds" />
          </mxGeometry>
        </mxCell>
        <mxCell id="TTWSgJHcMphLvMV4Wp4F-41" value="" style="shape=partialRectangle;html=1;whiteSpace=wrap;connectable=0;overflow=hidden;fillColor=none;top=0;left=0;bottom=0;right=0;pointerEvents=1;" vertex="1" parent="TTWSgJHcMphLvMV4Wp4F-29">
          <mxGeometry x="505" width="12" height="40" as="geometry">
            <mxRectangle width="12" height="40" as="alternateBounds" />
          </mxGeometry>
        </mxCell>
        <mxCell id="TTWSgJHcMphLvMV4Wp4F-42" value="" style="shape=partialRectangle;html=1;whiteSpace=wrap;connectable=0;overflow=hidden;fillColor=none;top=0;left=0;bottom=0;right=0;pointerEvents=1;" vertex="1" parent="TTWSgJHcMphLvMV4Wp4F-29">
          <mxGeometry x="517" width="10" height="40" as="geometry">
            <mxRectangle width="10" height="40" as="alternateBounds" />
          </mxGeometry>
        </mxCell>
        <mxCell id="TTWSgJHcMphLvMV4Wp4F-43" value="" style="shape=partialRectangle;html=1;whiteSpace=wrap;connectable=0;overflow=hidden;fillColor=none;top=0;left=0;bottom=0;right=0;pointerEvents=1;" vertex="1" parent="TTWSgJHcMphLvMV4Wp4F-29">
          <mxGeometry x="527" width="9" height="40" as="geometry">
            <mxRectangle width="9" height="40" as="alternateBounds" />
          </mxGeometry>
        </mxCell>
        <mxCell id="TTWSgJHcMphLvMV4Wp4F-44" value="" style="shape=partialRectangle;html=1;whiteSpace=wrap;connectable=0;overflow=hidden;fillColor=none;top=0;left=0;bottom=0;right=0;pointerEvents=1;" vertex="1" parent="TTWSgJHcMphLvMV4Wp4F-29">
          <mxGeometry x="536" width="12" height="40" as="geometry">
            <mxRectangle width="12" height="40" as="alternateBounds" />
          </mxGeometry>
        </mxCell>
        <mxCell id="TTWSgJHcMphLvMV4Wp4F-45" value="" style="shape=partialRectangle;html=1;whiteSpace=wrap;connectable=0;overflow=hidden;fillColor=none;top=0;left=0;bottom=0;right=0;pointerEvents=1;" vertex="1" parent="TTWSgJHcMphLvMV4Wp4F-29">
          <mxGeometry x="548" width="10" height="40" as="geometry">
            <mxRectangle width="10" height="40" as="alternateBounds" />
          </mxGeometry>
        </mxCell>
        <mxCell id="TTWSgJHcMphLvMV4Wp4F-46" value="" style="shape=partialRectangle;html=1;whiteSpace=wrap;connectable=0;overflow=hidden;fillColor=none;top=0;left=0;bottom=0;right=0;pointerEvents=1;" vertex="1" parent="TTWSgJHcMphLvMV4Wp4F-29">
          <mxGeometry x="558" width="10" height="40" as="geometry">
            <mxRectangle width="10" height="40" as="alternateBounds" />
          </mxGeometry>
        </mxCell>
        <mxCell id="TTWSgJHcMphLvMV4Wp4F-47" value="" style="shape=partialRectangle;html=1;whiteSpace=wrap;connectable=0;overflow=hidden;fillColor=none;top=0;left=0;bottom=0;right=0;pointerEvents=1;" vertex="1" parent="TTWSgJHcMphLvMV4Wp4F-29">
          <mxGeometry x="568" width="10" height="40" as="geometry">
            <mxRectangle width="10" height="40" as="alternateBounds" />
          </mxGeometry>
        </mxCell>
        <mxCell id="TTWSgJHcMphLvMV4Wp4F-48" value="" style="shape=partialRectangle;html=1;whiteSpace=wrap;connectable=0;overflow=hidden;fillColor=none;top=0;left=0;bottom=0;right=0;pointerEvents=1;" vertex="1" parent="TTWSgJHcMphLvMV4Wp4F-29">
          <mxGeometry x="578" width="12" height="40" as="geometry">
            <mxRectangle width="12" height="40" as="alternateBounds" />
          </mxGeometry>
        </mxCell>
        <mxCell id="TTWSgJHcMphLvMV4Wp4F-49" value="" style="shape=partialRectangle;html=1;whiteSpace=wrap;connectable=0;overflow=hidden;fillColor=none;top=0;left=0;bottom=0;right=0;pointerEvents=1;" vertex="1" parent="TTWSgJHcMphLvMV4Wp4F-29">
          <mxGeometry x="590" width="10" height="40" as="geometry">
            <mxRectangle width="10" height="40" as="alternateBounds" />
          </mxGeometry>
        </mxCell>
        <mxCell id="TTWSgJHcMphLvMV4Wp4F-71" style="shape=partialRectangle;html=1;whiteSpace=wrap;connectable=0;overflow=hidden;fillColor=none;top=0;left=0;bottom=0;right=0;pointerEvents=1;" vertex="1" parent="TTWSgJHcMphLvMV4Wp4F-29">
          <mxGeometry x="600" width="10" height="40" as="geometry">
            <mxRectangle width="10" height="40" as="alternateBounds" />
          </mxGeometry>
        </mxCell>
        <mxCell id="TTWSgJHcMphLvMV4Wp4F-72" style="shape=partialRectangle;html=1;whiteSpace=wrap;connectable=0;overflow=hidden;fillColor=none;top=0;left=0;bottom=0;right=0;pointerEvents=1;" vertex="1" parent="TTWSgJHcMphLvMV4Wp4F-29">
          <mxGeometry x="610" width="10" height="40" as="geometry">
            <mxRectangle width="10" height="40" as="alternateBounds" />
          </mxGeometry>
        </mxCell>
        <mxCell id="TTWSgJHcMphLvMV4Wp4F-73" style="shape=partialRectangle;html=1;whiteSpace=wrap;connectable=0;overflow=hidden;fillColor=none;top=0;left=0;bottom=0;right=0;pointerEvents=1;" vertex="1" parent="TTWSgJHcMphLvMV4Wp4F-29">
          <mxGeometry x="620" width="10" height="40" as="geometry">
            <mxRectangle width="10" height="40" as="alternateBounds" />
          </mxGeometry>
        </mxCell>
        <mxCell id="TTWSgJHcMphLvMV4Wp4F-74" style="shape=partialRectangle;html=1;whiteSpace=wrap;connectable=0;overflow=hidden;fillColor=none;top=0;left=0;bottom=0;right=0;pointerEvents=1;" vertex="1" parent="TTWSgJHcMphLvMV4Wp4F-29">
          <mxGeometry x="630" width="10" height="40" as="geometry">
            <mxRectangle width="10" height="40" as="alternateBounds" />
          </mxGeometry>
        </mxCell>
        <mxCell id="TTWSgJHcMphLvMV4Wp4F-75" style="shape=partialRectangle;html=1;whiteSpace=wrap;connectable=0;overflow=hidden;fillColor=none;top=0;left=0;bottom=0;right=0;pointerEvents=1;" vertex="1" parent="TTWSgJHcMphLvMV4Wp4F-29">
          <mxGeometry x="640" width="12" height="40" as="geometry">
            <mxRectangle width="12" height="40" as="alternateBounds" />
          </mxGeometry>
        </mxCell>
        <mxCell id="TTWSgJHcMphLvMV4Wp4F-76" style="shape=partialRectangle;html=1;whiteSpace=wrap;connectable=0;overflow=hidden;fillColor=none;top=0;left=0;bottom=0;right=0;pointerEvents=1;" vertex="1" parent="TTWSgJHcMphLvMV4Wp4F-29">
          <mxGeometry x="652" width="10" height="40" as="geometry">
            <mxRectangle width="10" height="40" as="alternateBounds" />
          </mxGeometry>
        </mxCell>
        <mxCell id="TTWSgJHcMphLvMV4Wp4F-77" style="shape=partialRectangle;html=1;whiteSpace=wrap;connectable=0;overflow=hidden;fillColor=none;top=0;left=0;bottom=0;right=0;pointerEvents=1;" vertex="1" parent="TTWSgJHcMphLvMV4Wp4F-29">
          <mxGeometry x="662" width="9" height="40" as="geometry">
            <mxRectangle width="9" height="40" as="alternateBounds" />
          </mxGeometry>
        </mxCell>
        <mxCell id="TTWSgJHcMphLvMV4Wp4F-230" value="0" style="shape=partialRectangle;html=1;whiteSpace=wrap;connectable=0;overflow=hidden;fillColor=none;top=0;left=0;bottom=0;right=0;pointerEvents=1;" vertex="1" parent="TTWSgJHcMphLvMV4Wp4F-29">
          <mxGeometry x="671" width="10" height="40" as="geometry">
            <mxRectangle width="10" height="40" as="alternateBounds" />
          </mxGeometry>
        </mxCell>
        <mxCell id="TTWSgJHcMphLvMV4Wp4F-115" value="" style="shape=table;startSize=0;container=1;collapsible=0;childLayout=tableLayout;" vertex="1" parent="1">
          <mxGeometry x="-720" y="470" width="681" height="40" as="geometry" />
        </mxCell>
        <mxCell id="TTWSgJHcMphLvMV4Wp4F-116" value="" style="shape=tableRow;horizontal=0;startSize=0;swimlaneHead=0;swimlaneBody=0;top=0;left=0;bottom=0;right=0;collapsible=0;dropTarget=0;fillColor=none;points=[[0,0.5],[1,0.5]];portConstraint=eastwest;" vertex="1" parent="TTWSgJHcMphLvMV4Wp4F-115">
          <mxGeometry width="681" height="40" as="geometry" />
        </mxCell>
        <mxCell id="TTWSgJHcMphLvMV4Wp4F-117" value="6&lt;br&gt;3" style="shape=partialRectangle;html=1;whiteSpace=wrap;connectable=0;overflow=hidden;fillColor=none;top=0;left=0;bottom=0;right=0;pointerEvents=1;" vertex="1" parent="TTWSgJHcMphLvMV4Wp4F-116">
          <mxGeometry width="11" height="40" as="geometry">
            <mxRectangle width="11" height="40" as="alternateBounds" />
          </mxGeometry>
        </mxCell>
        <mxCell id="TTWSgJHcMphLvMV4Wp4F-118" value="" style="shape=partialRectangle;html=1;whiteSpace=wrap;connectable=0;overflow=hidden;fillColor=none;top=0;left=0;bottom=0;right=0;pointerEvents=1;" vertex="1" parent="TTWSgJHcMphLvMV4Wp4F-116">
          <mxGeometry x="11" width="9" height="40" as="geometry">
            <mxRectangle width="9" height="40" as="alternateBounds" />
          </mxGeometry>
        </mxCell>
        <mxCell id="TTWSgJHcMphLvMV4Wp4F-119" value="" style="shape=partialRectangle;html=1;whiteSpace=wrap;connectable=0;overflow=hidden;fillColor=none;top=0;left=0;bottom=0;right=0;pointerEvents=1;" vertex="1" parent="TTWSgJHcMphLvMV4Wp4F-116">
          <mxGeometry x="20" width="10" height="40" as="geometry">
            <mxRectangle width="10" height="40" as="alternateBounds" />
          </mxGeometry>
        </mxCell>
        <mxCell id="TTWSgJHcMphLvMV4Wp4F-120" value="" style="shape=partialRectangle;html=1;whiteSpace=wrap;connectable=0;overflow=hidden;fillColor=none;top=0;left=0;bottom=0;right=0;pointerEvents=1;" vertex="1" parent="TTWSgJHcMphLvMV4Wp4F-116">
          <mxGeometry x="30" width="10" height="40" as="geometry">
            <mxRectangle width="10" height="40" as="alternateBounds" />
          </mxGeometry>
        </mxCell>
        <mxCell id="TTWSgJHcMphLvMV4Wp4F-121" value="" style="shape=partialRectangle;html=1;whiteSpace=wrap;connectable=0;overflow=hidden;fillColor=none;top=0;left=0;bottom=0;right=0;pointerEvents=1;" vertex="1" parent="TTWSgJHcMphLvMV4Wp4F-116">
          <mxGeometry x="40" width="11" height="40" as="geometry">
            <mxRectangle width="11" height="40" as="alternateBounds" />
          </mxGeometry>
        </mxCell>
        <mxCell id="TTWSgJHcMphLvMV4Wp4F-122" value="" style="shape=partialRectangle;html=1;whiteSpace=wrap;connectable=0;overflow=hidden;fillColor=none;top=0;left=0;bottom=0;right=0;pointerEvents=1;" vertex="1" parent="TTWSgJHcMphLvMV4Wp4F-116">
          <mxGeometry x="51" width="9" height="40" as="geometry">
            <mxRectangle width="9" height="40" as="alternateBounds" />
          </mxGeometry>
        </mxCell>
        <mxCell id="TTWSgJHcMphLvMV4Wp4F-123" value="" style="shape=partialRectangle;html=1;whiteSpace=wrap;connectable=0;overflow=hidden;fillColor=none;top=0;left=0;bottom=0;right=0;pointerEvents=1;" vertex="1" parent="TTWSgJHcMphLvMV4Wp4F-116">
          <mxGeometry x="60" width="11" height="40" as="geometry">
            <mxRectangle width="11" height="40" as="alternateBounds" />
          </mxGeometry>
        </mxCell>
        <mxCell id="TTWSgJHcMphLvMV4Wp4F-124" value="" style="shape=partialRectangle;html=1;whiteSpace=wrap;connectable=0;overflow=hidden;fillColor=none;top=0;left=0;bottom=0;right=0;pointerEvents=1;" vertex="1" parent="TTWSgJHcMphLvMV4Wp4F-116">
          <mxGeometry x="71" width="9" height="40" as="geometry">
            <mxRectangle width="9" height="40" as="alternateBounds" />
          </mxGeometry>
        </mxCell>
        <mxCell id="TTWSgJHcMphLvMV4Wp4F-125" value="" style="shape=partialRectangle;html=1;whiteSpace=wrap;connectable=0;overflow=hidden;fillColor=none;top=0;left=0;bottom=0;right=0;pointerEvents=1;" vertex="1" parent="TTWSgJHcMphLvMV4Wp4F-116">
          <mxGeometry x="80" width="11" height="40" as="geometry">
            <mxRectangle width="11" height="40" as="alternateBounds" />
          </mxGeometry>
        </mxCell>
        <mxCell id="TTWSgJHcMphLvMV4Wp4F-126" value="" style="shape=partialRectangle;html=1;whiteSpace=wrap;connectable=0;overflow=hidden;fillColor=none;top=0;left=0;bottom=0;right=0;pointerEvents=1;" vertex="1" parent="TTWSgJHcMphLvMV4Wp4F-116">
          <mxGeometry x="91" width="9" height="40" as="geometry">
            <mxRectangle width="9" height="40" as="alternateBounds" />
          </mxGeometry>
        </mxCell>
        <mxCell id="TTWSgJHcMphLvMV4Wp4F-127" value="" style="shape=partialRectangle;html=1;whiteSpace=wrap;connectable=0;overflow=hidden;fillColor=none;top=0;left=0;bottom=0;right=0;pointerEvents=1;" vertex="1" parent="TTWSgJHcMphLvMV4Wp4F-116">
          <mxGeometry x="100" width="10" height="40" as="geometry">
            <mxRectangle width="10" height="40" as="alternateBounds" />
          </mxGeometry>
        </mxCell>
        <mxCell id="TTWSgJHcMphLvMV4Wp4F-128" value="" style="shape=partialRectangle;html=1;whiteSpace=wrap;connectable=0;overflow=hidden;fillColor=none;top=0;left=0;bottom=0;right=0;pointerEvents=1;" vertex="1" parent="TTWSgJHcMphLvMV4Wp4F-116">
          <mxGeometry x="110" width="11" height="40" as="geometry">
            <mxRectangle width="11" height="40" as="alternateBounds" />
          </mxGeometry>
        </mxCell>
        <mxCell id="TTWSgJHcMphLvMV4Wp4F-129" value="" style="shape=partialRectangle;html=1;whiteSpace=wrap;connectable=0;overflow=hidden;fillColor=none;top=0;left=0;bottom=0;right=0;pointerEvents=1;" vertex="1" parent="TTWSgJHcMphLvMV4Wp4F-116">
          <mxGeometry x="121" width="9" height="40" as="geometry">
            <mxRectangle width="9" height="40" as="alternateBounds" />
          </mxGeometry>
        </mxCell>
        <mxCell id="TTWSgJHcMphLvMV4Wp4F-130" value="" style="shape=partialRectangle;html=1;whiteSpace=wrap;connectable=0;overflow=hidden;fillColor=none;top=0;left=0;bottom=0;right=0;pointerEvents=1;" vertex="1" parent="TTWSgJHcMphLvMV4Wp4F-116">
          <mxGeometry x="130" width="11" height="40" as="geometry">
            <mxRectangle width="11" height="40" as="alternateBounds" />
          </mxGeometry>
        </mxCell>
        <mxCell id="TTWSgJHcMphLvMV4Wp4F-131" value="" style="shape=partialRectangle;html=1;whiteSpace=wrap;connectable=0;overflow=hidden;fillColor=none;top=0;left=0;bottom=0;right=0;pointerEvents=1;" vertex="1" parent="TTWSgJHcMphLvMV4Wp4F-116">
          <mxGeometry x="141" width="9" height="40" as="geometry">
            <mxRectangle width="9" height="40" as="alternateBounds" />
          </mxGeometry>
        </mxCell>
        <mxCell id="TTWSgJHcMphLvMV4Wp4F-132" value="" style="shape=partialRectangle;html=1;whiteSpace=wrap;connectable=0;overflow=hidden;fillColor=none;top=0;left=0;bottom=0;right=0;pointerEvents=1;" vertex="1" parent="TTWSgJHcMphLvMV4Wp4F-116">
          <mxGeometry x="150" width="11" height="40" as="geometry">
            <mxRectangle width="11" height="40" as="alternateBounds" />
          </mxGeometry>
        </mxCell>
        <mxCell id="TTWSgJHcMphLvMV4Wp4F-133" value="" style="shape=partialRectangle;html=1;whiteSpace=wrap;connectable=0;overflow=hidden;fillColor=none;top=0;left=0;bottom=0;right=0;pointerEvents=1;" vertex="1" parent="TTWSgJHcMphLvMV4Wp4F-116">
          <mxGeometry x="161" width="10" height="40" as="geometry">
            <mxRectangle width="10" height="40" as="alternateBounds" />
          </mxGeometry>
        </mxCell>
        <mxCell id="TTWSgJHcMphLvMV4Wp4F-134" value="" style="shape=partialRectangle;html=1;whiteSpace=wrap;connectable=0;overflow=hidden;fillColor=none;top=0;left=0;bottom=0;right=0;pointerEvents=1;" vertex="1" parent="TTWSgJHcMphLvMV4Wp4F-116">
          <mxGeometry x="171" width="10" height="40" as="geometry">
            <mxRectangle width="10" height="40" as="alternateBounds" />
          </mxGeometry>
        </mxCell>
        <mxCell id="TTWSgJHcMphLvMV4Wp4F-135" value="" style="shape=partialRectangle;html=1;whiteSpace=wrap;connectable=0;overflow=hidden;fillColor=none;top=0;left=0;bottom=0;right=0;pointerEvents=1;" vertex="1" parent="TTWSgJHcMphLvMV4Wp4F-116">
          <mxGeometry x="181" width="9" height="40" as="geometry">
            <mxRectangle width="9" height="40" as="alternateBounds" />
          </mxGeometry>
        </mxCell>
        <mxCell id="TTWSgJHcMphLvMV4Wp4F-136" value="" style="shape=partialRectangle;html=1;whiteSpace=wrap;connectable=0;overflow=hidden;fillColor=none;top=0;left=0;bottom=0;right=0;pointerEvents=1;" vertex="1" parent="TTWSgJHcMphLvMV4Wp4F-116">
          <mxGeometry x="190" width="11" height="40" as="geometry">
            <mxRectangle width="11" height="40" as="alternateBounds" />
          </mxGeometry>
        </mxCell>
        <mxCell id="TTWSgJHcMphLvMV4Wp4F-186" style="shape=partialRectangle;html=1;whiteSpace=wrap;connectable=0;overflow=hidden;fillColor=none;top=0;left=0;bottom=0;right=0;pointerEvents=1;" vertex="1" parent="TTWSgJHcMphLvMV4Wp4F-116">
          <mxGeometry x="201" width="11" height="40" as="geometry">
            <mxRectangle width="11" height="40" as="alternateBounds" />
          </mxGeometry>
        </mxCell>
        <mxCell id="TTWSgJHcMphLvMV4Wp4F-187" style="shape=partialRectangle;html=1;whiteSpace=wrap;connectable=0;overflow=hidden;fillColor=none;top=0;left=0;bottom=0;right=0;pointerEvents=1;" vertex="1" parent="TTWSgJHcMphLvMV4Wp4F-116">
          <mxGeometry x="212" width="10" height="40" as="geometry">
            <mxRectangle width="10" height="40" as="alternateBounds" />
          </mxGeometry>
        </mxCell>
        <mxCell id="TTWSgJHcMphLvMV4Wp4F-188" style="shape=partialRectangle;html=1;whiteSpace=wrap;connectable=0;overflow=hidden;fillColor=none;top=0;left=0;bottom=0;right=0;pointerEvents=1;" vertex="1" parent="TTWSgJHcMphLvMV4Wp4F-116">
          <mxGeometry x="222" width="11" height="40" as="geometry">
            <mxRectangle width="11" height="40" as="alternateBounds" />
          </mxGeometry>
        </mxCell>
        <mxCell id="TTWSgJHcMphLvMV4Wp4F-189" style="shape=partialRectangle;html=1;whiteSpace=wrap;connectable=0;overflow=hidden;fillColor=none;top=0;left=0;bottom=0;right=0;pointerEvents=1;" vertex="1" parent="TTWSgJHcMphLvMV4Wp4F-116">
          <mxGeometry x="233" width="12" height="40" as="geometry">
            <mxRectangle width="12" height="40" as="alternateBounds" />
          </mxGeometry>
        </mxCell>
        <mxCell id="TTWSgJHcMphLvMV4Wp4F-190" style="shape=partialRectangle;html=1;whiteSpace=wrap;connectable=0;overflow=hidden;fillColor=none;top=0;left=0;bottom=0;right=0;pointerEvents=1;" vertex="1" parent="TTWSgJHcMphLvMV4Wp4F-116">
          <mxGeometry x="245" width="11" height="40" as="geometry">
            <mxRectangle width="11" height="40" as="alternateBounds" />
          </mxGeometry>
        </mxCell>
        <mxCell id="TTWSgJHcMphLvMV4Wp4F-191" style="shape=partialRectangle;html=1;whiteSpace=wrap;connectable=0;overflow=hidden;fillColor=none;top=0;left=0;bottom=0;right=0;pointerEvents=1;" vertex="1" parent="TTWSgJHcMphLvMV4Wp4F-116">
          <mxGeometry x="256" width="10" height="40" as="geometry">
            <mxRectangle width="10" height="40" as="alternateBounds" />
          </mxGeometry>
        </mxCell>
        <mxCell id="TTWSgJHcMphLvMV4Wp4F-192" style="shape=partialRectangle;html=1;whiteSpace=wrap;connectable=0;overflow=hidden;fillColor=none;top=0;left=0;bottom=0;right=0;pointerEvents=1;" vertex="1" parent="TTWSgJHcMphLvMV4Wp4F-116">
          <mxGeometry x="266" width="11" height="40" as="geometry">
            <mxRectangle width="11" height="40" as="alternateBounds" />
          </mxGeometry>
        </mxCell>
        <mxCell id="TTWSgJHcMphLvMV4Wp4F-193" style="shape=partialRectangle;html=1;whiteSpace=wrap;connectable=0;overflow=hidden;fillColor=none;top=0;left=0;bottom=0;right=0;pointerEvents=1;" vertex="1" parent="TTWSgJHcMphLvMV4Wp4F-116">
          <mxGeometry x="277" width="11" height="40" as="geometry">
            <mxRectangle width="11" height="40" as="alternateBounds" />
          </mxGeometry>
        </mxCell>
        <mxCell id="TTWSgJHcMphLvMV4Wp4F-194" style="shape=partialRectangle;html=1;whiteSpace=wrap;connectable=0;overflow=hidden;fillColor=none;top=0;left=0;bottom=0;right=0;pointerEvents=1;" vertex="1" parent="TTWSgJHcMphLvMV4Wp4F-116">
          <mxGeometry x="288" width="11" height="40" as="geometry">
            <mxRectangle width="11" height="40" as="alternateBounds" />
          </mxGeometry>
        </mxCell>
        <mxCell id="TTWSgJHcMphLvMV4Wp4F-195" style="shape=partialRectangle;html=1;whiteSpace=wrap;connectable=0;overflow=hidden;fillColor=none;top=0;left=0;bottom=0;right=0;pointerEvents=1;" vertex="1" parent="TTWSgJHcMphLvMV4Wp4F-116">
          <mxGeometry x="299" width="11" height="40" as="geometry">
            <mxRectangle width="11" height="40" as="alternateBounds" />
          </mxGeometry>
        </mxCell>
        <mxCell id="TTWSgJHcMphLvMV4Wp4F-196" style="shape=partialRectangle;html=1;whiteSpace=wrap;connectable=0;overflow=hidden;fillColor=none;top=0;left=0;bottom=0;right=0;pointerEvents=1;" vertex="1" parent="TTWSgJHcMphLvMV4Wp4F-116">
          <mxGeometry x="310" width="11" height="40" as="geometry">
            <mxRectangle width="11" height="40" as="alternateBounds" />
          </mxGeometry>
        </mxCell>
        <mxCell id="TTWSgJHcMphLvMV4Wp4F-197" style="shape=partialRectangle;html=1;whiteSpace=wrap;connectable=0;overflow=hidden;fillColor=none;top=0;left=0;bottom=0;right=0;pointerEvents=1;" vertex="1" parent="TTWSgJHcMphLvMV4Wp4F-116">
          <mxGeometry x="321" width="11" height="40" as="geometry">
            <mxRectangle width="11" height="40" as="alternateBounds" />
          </mxGeometry>
        </mxCell>
        <mxCell id="TTWSgJHcMphLvMV4Wp4F-198" style="shape=partialRectangle;html=1;whiteSpace=wrap;connectable=0;overflow=hidden;fillColor=none;top=0;left=0;bottom=0;right=0;pointerEvents=1;" vertex="1" parent="TTWSgJHcMphLvMV4Wp4F-116">
          <mxGeometry x="332" width="11" height="40" as="geometry">
            <mxRectangle width="11" height="40" as="alternateBounds" />
          </mxGeometry>
        </mxCell>
        <mxCell id="TTWSgJHcMphLvMV4Wp4F-199" style="shape=partialRectangle;html=1;whiteSpace=wrap;connectable=0;overflow=hidden;fillColor=none;top=0;left=0;bottom=0;right=0;pointerEvents=1;" vertex="1" parent="TTWSgJHcMphLvMV4Wp4F-116">
          <mxGeometry x="343" width="10" height="40" as="geometry">
            <mxRectangle width="10" height="40" as="alternateBounds" />
          </mxGeometry>
        </mxCell>
        <mxCell id="TTWSgJHcMphLvMV4Wp4F-200" style="shape=partialRectangle;html=1;whiteSpace=wrap;connectable=0;overflow=hidden;fillColor=none;top=0;left=0;bottom=0;right=0;pointerEvents=1;" vertex="1" parent="TTWSgJHcMphLvMV4Wp4F-116">
          <mxGeometry x="353" width="11" height="40" as="geometry">
            <mxRectangle width="11" height="40" as="alternateBounds" />
          </mxGeometry>
        </mxCell>
        <mxCell id="TTWSgJHcMphLvMV4Wp4F-201" style="shape=partialRectangle;html=1;whiteSpace=wrap;connectable=0;overflow=hidden;fillColor=none;top=0;left=0;bottom=0;right=0;pointerEvents=1;" vertex="1" parent="TTWSgJHcMphLvMV4Wp4F-116">
          <mxGeometry x="364" width="12" height="40" as="geometry">
            <mxRectangle width="12" height="40" as="alternateBounds" />
          </mxGeometry>
        </mxCell>
        <mxCell id="TTWSgJHcMphLvMV4Wp4F-202" style="shape=partialRectangle;html=1;whiteSpace=wrap;connectable=0;overflow=hidden;fillColor=none;top=0;left=0;bottom=0;right=0;pointerEvents=1;" vertex="1" parent="TTWSgJHcMphLvMV4Wp4F-116">
          <mxGeometry x="376" width="11" height="40" as="geometry">
            <mxRectangle width="11" height="40" as="alternateBounds" />
          </mxGeometry>
        </mxCell>
        <mxCell id="TTWSgJHcMphLvMV4Wp4F-203" style="shape=partialRectangle;html=1;whiteSpace=wrap;connectable=0;overflow=hidden;fillColor=none;top=0;left=0;bottom=0;right=0;pointerEvents=1;" vertex="1" parent="TTWSgJHcMphLvMV4Wp4F-116">
          <mxGeometry x="387" width="10" height="40" as="geometry">
            <mxRectangle width="10" height="40" as="alternateBounds" />
          </mxGeometry>
        </mxCell>
        <mxCell id="TTWSgJHcMphLvMV4Wp4F-204" style="shape=partialRectangle;html=1;whiteSpace=wrap;connectable=0;overflow=hidden;fillColor=none;top=0;left=0;bottom=0;right=0;pointerEvents=1;" vertex="1" parent="TTWSgJHcMphLvMV4Wp4F-116">
          <mxGeometry x="397" width="11" height="40" as="geometry">
            <mxRectangle width="11" height="40" as="alternateBounds" />
          </mxGeometry>
        </mxCell>
        <mxCell id="TTWSgJHcMphLvMV4Wp4F-205" style="shape=partialRectangle;html=1;whiteSpace=wrap;connectable=0;overflow=hidden;fillColor=none;top=0;left=0;bottom=0;right=0;pointerEvents=1;" vertex="1" parent="TTWSgJHcMphLvMV4Wp4F-116">
          <mxGeometry x="408" width="11" height="40" as="geometry">
            <mxRectangle width="11" height="40" as="alternateBounds" />
          </mxGeometry>
        </mxCell>
        <mxCell id="TTWSgJHcMphLvMV4Wp4F-206" style="shape=partialRectangle;html=1;whiteSpace=wrap;connectable=0;overflow=hidden;fillColor=none;top=0;left=0;bottom=0;right=0;pointerEvents=1;" vertex="1" parent="TTWSgJHcMphLvMV4Wp4F-116">
          <mxGeometry x="419" width="11" height="40" as="geometry">
            <mxRectangle width="11" height="40" as="alternateBounds" />
          </mxGeometry>
        </mxCell>
        <mxCell id="TTWSgJHcMphLvMV4Wp4F-207" style="shape=partialRectangle;html=1;whiteSpace=wrap;connectable=0;overflow=hidden;fillColor=none;top=0;left=0;bottom=0;right=0;pointerEvents=1;" vertex="1" parent="TTWSgJHcMphLvMV4Wp4F-116">
          <mxGeometry x="430" width="10" height="40" as="geometry">
            <mxRectangle width="10" height="40" as="alternateBounds" />
          </mxGeometry>
        </mxCell>
        <mxCell id="TTWSgJHcMphLvMV4Wp4F-208" style="shape=partialRectangle;html=1;whiteSpace=wrap;connectable=0;overflow=hidden;fillColor=none;top=0;left=0;bottom=0;right=0;pointerEvents=1;" vertex="1" parent="TTWSgJHcMphLvMV4Wp4F-116">
          <mxGeometry x="440" width="12" height="40" as="geometry">
            <mxRectangle width="12" height="40" as="alternateBounds" />
          </mxGeometry>
        </mxCell>
        <mxCell id="TTWSgJHcMphLvMV4Wp4F-209" style="shape=partialRectangle;html=1;whiteSpace=wrap;connectable=0;overflow=hidden;fillColor=none;top=0;left=0;bottom=0;right=0;pointerEvents=1;" vertex="1" parent="TTWSgJHcMphLvMV4Wp4F-116">
          <mxGeometry x="452" width="11" height="40" as="geometry">
            <mxRectangle width="11" height="40" as="alternateBounds" />
          </mxGeometry>
        </mxCell>
        <mxCell id="TTWSgJHcMphLvMV4Wp4F-210" style="shape=partialRectangle;html=1;whiteSpace=wrap;connectable=0;overflow=hidden;fillColor=none;top=0;left=0;bottom=0;right=0;pointerEvents=1;" vertex="1" parent="TTWSgJHcMphLvMV4Wp4F-116">
          <mxGeometry x="463" width="11" height="40" as="geometry">
            <mxRectangle width="11" height="40" as="alternateBounds" />
          </mxGeometry>
        </mxCell>
        <mxCell id="TTWSgJHcMphLvMV4Wp4F-211" style="shape=partialRectangle;html=1;whiteSpace=wrap;connectable=0;overflow=hidden;fillColor=none;top=0;left=0;bottom=0;right=0;pointerEvents=1;" vertex="1" parent="TTWSgJHcMphLvMV4Wp4F-116">
          <mxGeometry x="474" width="10" height="40" as="geometry">
            <mxRectangle width="10" height="40" as="alternateBounds" />
          </mxGeometry>
        </mxCell>
        <mxCell id="TTWSgJHcMphLvMV4Wp4F-212" style="shape=partialRectangle;html=1;whiteSpace=wrap;connectable=0;overflow=hidden;fillColor=none;top=0;left=0;bottom=0;right=0;pointerEvents=1;" vertex="1" parent="TTWSgJHcMphLvMV4Wp4F-116">
          <mxGeometry x="484" width="11" height="40" as="geometry">
            <mxRectangle width="11" height="40" as="alternateBounds" />
          </mxGeometry>
        </mxCell>
        <mxCell id="TTWSgJHcMphLvMV4Wp4F-213" style="shape=partialRectangle;html=1;whiteSpace=wrap;connectable=0;overflow=hidden;fillColor=none;top=0;left=0;bottom=0;right=0;pointerEvents=1;" vertex="1" parent="TTWSgJHcMphLvMV4Wp4F-116">
          <mxGeometry x="495" width="11" height="40" as="geometry">
            <mxRectangle width="11" height="40" as="alternateBounds" />
          </mxGeometry>
        </mxCell>
        <mxCell id="TTWSgJHcMphLvMV4Wp4F-214" style="shape=partialRectangle;html=1;whiteSpace=wrap;connectable=0;overflow=hidden;fillColor=none;top=0;left=0;bottom=0;right=0;pointerEvents=1;" vertex="1" parent="TTWSgJHcMphLvMV4Wp4F-116">
          <mxGeometry x="506" width="12" height="40" as="geometry">
            <mxRectangle width="12" height="40" as="alternateBounds" />
          </mxGeometry>
        </mxCell>
        <mxCell id="TTWSgJHcMphLvMV4Wp4F-215" style="shape=partialRectangle;html=1;whiteSpace=wrap;connectable=0;overflow=hidden;fillColor=none;top=0;left=0;bottom=0;right=0;pointerEvents=1;" vertex="1" parent="TTWSgJHcMphLvMV4Wp4F-116">
          <mxGeometry x="518" width="10" height="40" as="geometry">
            <mxRectangle width="10" height="40" as="alternateBounds" />
          </mxGeometry>
        </mxCell>
        <mxCell id="TTWSgJHcMphLvMV4Wp4F-216" style="shape=partialRectangle;html=1;whiteSpace=wrap;connectable=0;overflow=hidden;fillColor=none;top=0;left=0;bottom=0;right=0;pointerEvents=1;" vertex="1" parent="TTWSgJHcMphLvMV4Wp4F-116">
          <mxGeometry x="528" width="11" height="40" as="geometry">
            <mxRectangle width="11" height="40" as="alternateBounds" />
          </mxGeometry>
        </mxCell>
        <mxCell id="TTWSgJHcMphLvMV4Wp4F-217" style="shape=partialRectangle;html=1;whiteSpace=wrap;connectable=0;overflow=hidden;fillColor=none;top=0;left=0;bottom=0;right=0;pointerEvents=1;" vertex="1" parent="TTWSgJHcMphLvMV4Wp4F-116">
          <mxGeometry x="539" width="11" height="40" as="geometry">
            <mxRectangle width="11" height="40" as="alternateBounds" />
          </mxGeometry>
        </mxCell>
        <mxCell id="TTWSgJHcMphLvMV4Wp4F-218" style="shape=partialRectangle;html=1;whiteSpace=wrap;connectable=0;overflow=hidden;fillColor=none;top=0;left=0;bottom=0;right=0;pointerEvents=1;" vertex="1" parent="TTWSgJHcMphLvMV4Wp4F-116">
          <mxGeometry x="550" width="11" height="40" as="geometry">
            <mxRectangle width="11" height="40" as="alternateBounds" />
          </mxGeometry>
        </mxCell>
        <mxCell id="TTWSgJHcMphLvMV4Wp4F-219" style="shape=partialRectangle;html=1;whiteSpace=wrap;connectable=0;overflow=hidden;fillColor=none;top=0;left=0;bottom=0;right=0;pointerEvents=1;" vertex="1" parent="TTWSgJHcMphLvMV4Wp4F-116">
          <mxGeometry x="561" width="10" height="40" as="geometry">
            <mxRectangle width="10" height="40" as="alternateBounds" />
          </mxGeometry>
        </mxCell>
        <mxCell id="TTWSgJHcMphLvMV4Wp4F-220" style="shape=partialRectangle;html=1;whiteSpace=wrap;connectable=0;overflow=hidden;fillColor=none;top=0;left=0;bottom=0;right=0;pointerEvents=1;" vertex="1" parent="TTWSgJHcMphLvMV4Wp4F-116">
          <mxGeometry x="571" width="12" height="40" as="geometry">
            <mxRectangle width="12" height="40" as="alternateBounds" />
          </mxGeometry>
        </mxCell>
        <mxCell id="TTWSgJHcMphLvMV4Wp4F-221" style="shape=partialRectangle;html=1;whiteSpace=wrap;connectable=0;overflow=hidden;fillColor=none;top=0;left=0;bottom=0;right=0;pointerEvents=1;" vertex="1" parent="TTWSgJHcMphLvMV4Wp4F-116">
          <mxGeometry x="583" width="11" height="40" as="geometry">
            <mxRectangle width="11" height="40" as="alternateBounds" />
          </mxGeometry>
        </mxCell>
        <mxCell id="TTWSgJHcMphLvMV4Wp4F-222" style="shape=partialRectangle;html=1;whiteSpace=wrap;connectable=0;overflow=hidden;fillColor=none;top=0;left=0;bottom=0;right=0;pointerEvents=1;" vertex="1" parent="TTWSgJHcMphLvMV4Wp4F-116">
          <mxGeometry x="594" width="11" height="40" as="geometry">
            <mxRectangle width="11" height="40" as="alternateBounds" />
          </mxGeometry>
        </mxCell>
        <mxCell id="TTWSgJHcMphLvMV4Wp4F-223" style="shape=partialRectangle;html=1;whiteSpace=wrap;connectable=0;overflow=hidden;fillColor=none;top=0;left=0;bottom=0;right=0;pointerEvents=1;" vertex="1" parent="TTWSgJHcMphLvMV4Wp4F-116">
          <mxGeometry x="605" width="10" height="40" as="geometry">
            <mxRectangle width="10" height="40" as="alternateBounds" />
          </mxGeometry>
        </mxCell>
        <mxCell id="TTWSgJHcMphLvMV4Wp4F-224" style="shape=partialRectangle;html=1;whiteSpace=wrap;connectable=0;overflow=hidden;fillColor=none;top=0;left=0;bottom=0;right=0;pointerEvents=1;" vertex="1" parent="TTWSgJHcMphLvMV4Wp4F-116">
          <mxGeometry x="615" width="11" height="40" as="geometry">
            <mxRectangle width="11" height="40" as="alternateBounds" />
          </mxGeometry>
        </mxCell>
        <mxCell id="TTWSgJHcMphLvMV4Wp4F-225" style="shape=partialRectangle;html=1;whiteSpace=wrap;connectable=0;overflow=hidden;fillColor=none;top=0;left=0;bottom=0;right=0;pointerEvents=1;" vertex="1" parent="TTWSgJHcMphLvMV4Wp4F-116">
          <mxGeometry x="626" width="11" height="40" as="geometry">
            <mxRectangle width="11" height="40" as="alternateBounds" />
          </mxGeometry>
        </mxCell>
        <mxCell id="TTWSgJHcMphLvMV4Wp4F-226" style="shape=partialRectangle;html=1;whiteSpace=wrap;connectable=0;overflow=hidden;fillColor=none;top=0;left=0;bottom=0;right=0;pointerEvents=1;" vertex="1" parent="TTWSgJHcMphLvMV4Wp4F-116">
          <mxGeometry x="637" width="12" height="40" as="geometry">
            <mxRectangle width="12" height="40" as="alternateBounds" />
          </mxGeometry>
        </mxCell>
        <mxCell id="TTWSgJHcMphLvMV4Wp4F-227" style="shape=partialRectangle;html=1;whiteSpace=wrap;connectable=0;overflow=hidden;fillColor=none;top=0;left=0;bottom=0;right=0;pointerEvents=1;" vertex="1" parent="TTWSgJHcMphLvMV4Wp4F-116">
          <mxGeometry x="649" width="10" height="40" as="geometry">
            <mxRectangle width="10" height="40" as="alternateBounds" />
          </mxGeometry>
        </mxCell>
        <mxCell id="TTWSgJHcMphLvMV4Wp4F-228" style="shape=partialRectangle;html=1;whiteSpace=wrap;connectable=0;overflow=hidden;fillColor=none;top=0;left=0;bottom=0;right=0;pointerEvents=1;" vertex="1" parent="TTWSgJHcMphLvMV4Wp4F-116">
          <mxGeometry x="659" width="11" height="40" as="geometry">
            <mxRectangle width="11" height="40" as="alternateBounds" />
          </mxGeometry>
        </mxCell>
        <mxCell id="TTWSgJHcMphLvMV4Wp4F-229" value="0" style="shape=partialRectangle;html=1;whiteSpace=wrap;connectable=0;overflow=hidden;fillColor=none;top=0;left=0;bottom=0;right=0;pointerEvents=1;" vertex="1" parent="TTWSgJHcMphLvMV4Wp4F-116">
          <mxGeometry x="670" width="11" height="40" as="geometry">
            <mxRectangle width="11" height="40" as="alternateBounds" />
          </mxGeometry>
        </mxCell>
        <mxCell id="TTWSgJHcMphLvMV4Wp4F-232" value="" style="shape=table;startSize=0;container=1;collapsible=0;childLayout=tableLayout;" vertex="1" parent="1">
          <mxGeometry x="-781" y="310" width="60" height="40" as="geometry" />
        </mxCell>
        <mxCell id="TTWSgJHcMphLvMV4Wp4F-233" value="" style="shape=tableRow;horizontal=0;startSize=0;swimlaneHead=0;swimlaneBody=0;top=0;left=0;bottom=0;right=0;collapsible=0;dropTarget=0;fillColor=none;points=[[0,0.5],[1,0.5]];portConstraint=eastwest;" vertex="1" parent="TTWSgJHcMphLvMV4Wp4F-232">
          <mxGeometry width="60" height="40" as="geometry" />
        </mxCell>
        <mxCell id="TTWSgJHcMphLvMV4Wp4F-234" value="Quad&lt;br&gt;Word" style="shape=partialRectangle;html=1;whiteSpace=wrap;connectable=0;overflow=hidden;fillColor=none;top=0;left=0;bottom=0;right=0;pointerEvents=1;" vertex="1" parent="TTWSgJHcMphLvMV4Wp4F-233">
          <mxGeometry width="60" height="40" as="geometry">
            <mxRectangle width="60" height="40" as="alternateBounds" />
          </mxGeometry>
        </mxCell>
        <mxCell id="TTWSgJHcMphLvMV4Wp4F-235" value="Tx Packet Buffer Address" style="rounded=0;whiteSpace=wrap;html=1;" vertex="1" parent="1">
          <mxGeometry x="-720" y="390" width="680" height="40" as="geometry" />
        </mxCell>
        <mxCell id="TTWSgJHcMphLvMV4Wp4F-236" value="xxx" style="rounded=0;whiteSpace=wrap;html=1;" vertex="1" parent="1">
          <mxGeometry x="-720" y="430" width="640" height="40" as="geometry" />
        </mxCell>
        <mxCell id="TTWSgJHcMphLvMV4Wp4F-237" value="" style="shape=table;startSize=0;container=1;collapsible=0;childLayout=tableLayout;" vertex="1" parent="1">
          <mxGeometry x="-781" y="350" width="60" height="80" as="geometry" />
        </mxCell>
        <mxCell id="TTWSgJHcMphLvMV4Wp4F-238" value="" style="shape=tableRow;horizontal=0;startSize=0;swimlaneHead=0;swimlaneBody=0;top=0;left=0;bottom=0;right=0;collapsible=0;dropTarget=0;fillColor=none;points=[[0,0.5],[1,0.5]];portConstraint=eastwest;" vertex="1" parent="TTWSgJHcMphLvMV4Wp4F-237">
          <mxGeometry width="60" height="80" as="geometry" />
        </mxCell>
        <mxCell id="TTWSgJHcMphLvMV4Wp4F-239" value="0" style="shape=partialRectangle;html=1;whiteSpace=wrap;connectable=0;overflow=hidden;fillColor=none;top=0;left=0;bottom=0;right=0;pointerEvents=1;" vertex="1" parent="TTWSgJHcMphLvMV4Wp4F-238">
          <mxGeometry width="60" height="80" as="geometry">
            <mxRectangle width="60" height="80" as="alternateBounds" />
          </mxGeometry>
        </mxCell>
        <mxCell id="TTWSgJHcMphLvMV4Wp4F-240" value="" style="shape=table;startSize=0;container=1;collapsible=0;childLayout=tableLayout;" vertex="1" parent="1">
          <mxGeometry x="-781" y="430" width="60" height="80" as="geometry" />
        </mxCell>
        <mxCell id="TTWSgJHcMphLvMV4Wp4F-241" value="" style="shape=tableRow;horizontal=0;startSize=0;swimlaneHead=0;swimlaneBody=0;top=0;left=0;bottom=0;right=0;collapsible=0;dropTarget=0;fillColor=none;points=[[0,0.5],[1,0.5]];portConstraint=eastwest;" vertex="1" parent="TTWSgJHcMphLvMV4Wp4F-240">
          <mxGeometry width="60" height="80" as="geometry" />
        </mxCell>
        <mxCell id="TTWSgJHcMphLvMV4Wp4F-242" value="1" style="shape=partialRectangle;html=1;whiteSpace=wrap;connectable=0;overflow=hidden;fillColor=none;top=0;left=0;bottom=0;right=0;pointerEvents=1;" vertex="1" parent="TTWSgJHcMphLvMV4Wp4F-241">
          <mxGeometry width="60" height="80" as="geometry">
            <mxRectangle width="60" height="80" as="alternateBounds" />
          </mxGeometry>
        </mxCell>
        <mxCell id="TTWSgJHcMphLvMV4Wp4F-243" value="" style="shape=table;startSize=0;container=1;collapsible=0;childLayout=tableLayout;" vertex="1" parent="1">
          <mxGeometry x="-82" y="430" width="42" height="40" as="geometry" />
        </mxCell>
        <mxCell id="TTWSgJHcMphLvMV4Wp4F-244" value="" style="shape=tableRow;horizontal=0;startSize=0;swimlaneHead=0;swimlaneBody=0;top=0;left=0;bottom=0;right=0;collapsible=0;dropTarget=0;fillColor=none;points=[[0,0.5],[1,0.5]];portConstraint=eastwest;" vertex="1" parent="TTWSgJHcMphLvMV4Wp4F-243">
          <mxGeometry width="42" height="40" as="geometry" />
        </mxCell>
        <mxCell id="TTWSgJHcMphLvMV4Wp4F-245" value="type" style="shape=partialRectangle;html=1;whiteSpace=wrap;connectable=0;overflow=hidden;fillColor=none;top=0;left=0;bottom=0;right=0;pointerEvents=1;" vertex="1" parent="TTWSgJHcMphLvMV4Wp4F-244">
          <mxGeometry width="42" height="40" as="geometry">
            <mxRectangle width="42" height="40" as="alternateBounds" />
          </mxGeometry>
        </mxCell>
      </root>
    </mxGraphModel>
  </diagram>
</mxfile>
